# xmcd
#
# Track frame offsets: 
#        150
#        15617
#        29475
#        40242
#        54090
#        69785
#        84857
#        96635
#        108650
#        122272
#        134575
#        148310
#        160282
#        171810
#        182577
#        195340
#        207765
#        220452
#        234197
#        244762
#        256290
#        266632
#        279490
#        295625
#        309247
#
# Disc length: 4312 seconds
#
# Revision: 6
# Processed by: cddbd v1.5.2PL0 Copyright (c) Steve Scherf et al.
# Submitted via: ExactAudioCopyFreeDBPlugin 1.0
#
DISCID=5f10d619
DTITLE=Garnet Mimms and The Enchanters - EMI Legends Of Rhythm and Blues -
DTITLE=Cry Baby - The Best Of
DYEAR=1993
DGENRE=Oldies
TTITLE0=Cry Baby
TTITLE1=Don't Change Your Heart
TTITLE2=A Quiet Place
TTITLE3=For Your Precious Love
TTITLE4=Baby Don't You Weep
TTITLE5=Until You Were Gone
TTITLE6=I Keep Wanting You
TTITLE7=The Truth Hurts
TTITLE8=Anytime You Want Me
TTITLE9=Tell Me Baby
TTITLE10=One Girl
TTITLE11=Look Away
TTITLE12=Every Time
TTITLE13=A Little Bit Of Soap
TTITLE14=I'll Make It Up To You
TTITLE15=As Long As I Have You
TTITLE16=It Was Easier To Hurt Her
TTITLE17=Welcome Home
TTITLE18=Prove It To Me
TTITLE19=Looking For You
TTITLE20=Thinkin'
TTITLE21=Keep On Smilin'
TTITLE22=I'll Take Good Care Of You
TTITLE23=It's Been Such A Long Way Home
TTITLE24=My Baby
EXTD=
EXTT0=
EXTT1=
EXTT2=
EXTT3=
EXTT4=
EXTT5=
EXTT6=
EXTT7=
EXTT8=
EXTT9=
EXTT10=
EXTT11=
EXTT12=
EXTT13=
EXTT14=
EXTT15=
EXTT16=
EXTT17=
EXTT18=
EXTT19=
EXTT20=
EXTT21=
EXTT22=
EXTT23=
EXTT24=
PLAYORDER=
